<svg width="25" height="24" viewBox="0 0 25 24" fill="none" xmlns="http://www.w3.org/2000/svg">
<g id="lock">
<path id="Icon" d="M7.5 11V7C7.5 5.67392 8.02678 4.40215 8.96447 3.46447C9.90215 2.52678 11.1739 2 12.5 2C13.8261 2 15.0979 2.52678 16.0355 3.46447C16.9732 4.40215 17.5 5.67392 17.5 7V11M5.5 11H19.5C20.6046 11 21.5 11.8954 21.5 13V20C21.5 21.1046 20.6046 22 19.5 22H5.5C4.39543 22 3.5 21.1046 3.5 20V13C3.5 11.8954 4.39543 11 5.5 11Z" stroke="white" stroke-width="2" stroke-linecap="round" stroke-linejoin="round"/>
</g>
</svg>
