<svg xmlns="http://www.w3.org/2000/svg" width="20" height="21" viewBox="0 0 20 21" fill="none">
  <path d="M17.6749 13.7417C17.1448 14.9954 16.3156 16.1002 15.2598 16.9594C14.2041 17.8187 12.9539 18.4062 11.6186 18.6706C10.2833 18.9351 8.90361 18.8685 7.60005 18.4765C6.29649 18.0845 5.10878 17.3792 4.14078 16.4222C3.17277 15.4652 2.45394 14.2856 2.04712 12.9866C1.64031 11.6876 1.5579 10.3087 1.80709 8.97053C2.05629 7.63231 2.62951 6.37552 3.47663 5.31002C4.32376 4.24452 5.419 3.40276 6.6666 2.85833M18.3333 10.5C18.3333 9.40565 18.1177 8.32202 17.6989 7.31097C17.2801 6.29992 16.6663 5.38126 15.8925 4.60744C15.1187 3.83362 14.2 3.21979 13.189 2.801C12.1779 2.38221 11.0943 2.16666 9.99993 2.16666V10.5H18.3333Z" stroke="#4B4B4B" stroke-width="2" stroke-linecap="round" stroke-linejoin="round"/>
</svg>